<?xml version="1.0" standalone="no"?><svg xmlns="http://www.w3.org/2000/svg" viewBox="0 0 1440 320"><path fill="#1EB47D" fill-opacity="1" d="M0,288L20,293.3C40,299,80,309,120,288C160,267,200,213,240,192C280,171,320,181,360,170.7C400,160,440,128,480,122.7C520,117,560,139,600,128C640,117,680,75,720,90.7C760,107,800,181,840,213.3C880,245,920,235,960,213.3C1000,192,1040,160,1080,170.7C1120,181,1160,235,1200,256C1240,277,1280,267,1320,272C1360,277,1400,299,1420,309.3L1440,320L1440,0L1420,0C1400,0,1360,0,1320,0C1280,0,1240,0,1200,0C1160,0,1120,0,1080,0C1040,0,1000,0,960,0C920,0,880,0,840,0C800,0,760,0,720,0C680,0,640,0,600,0C560,0,520,0,480,0C440,0,400,0,360,0C320,0,280,0,240,0C200,0,160,0,120,0C80,0,40,0,20,0L0,0Z"></path></svg>